<svg width="60" height="60" viewBox="0 0 60 60" fill="none" xmlns="http://www.w3.org/2000/svg">
<path fill-rule="evenodd" clip-rule="evenodd" d="M11.2257 32.1562C11.3007 33.7049 12.8476 32.9887 13.5488 32.5049C14.2145 32.0456 14.4095 32.4281 14.4676 31.5206C14.5279 30.9257 14.5523 30.3277 14.5407 29.7299C13.5077 29.6263 12.4714 29.892 11.6157 30.4799C11.1901 30.7893 10.3951 31.7737 11.2257 32.1674" fill="#F6D2A2"/>
<path d="M12.0298 33.2473C11.8769 33.2501 11.7254 33.2174 11.5873 33.1517C11.4295 33.0604 11.2992 32.9283 11.2101 32.7693C11.121 32.6103 11.0764 32.4301 11.0811 32.2479C10.9787 32.1984 10.8907 32.1238 10.8251 32.031C10.7595 31.9382 10.7185 31.8303 10.7061 31.7173C10.734 31.4449 10.821 31.1819 10.9609 30.9465C11.1007 30.7111 11.2902 30.509 11.5161 30.3542C12.3995 29.7434 13.4722 29.4687 14.5404 29.5798L14.6679 29.591V29.7185C14.6844 30.1859 14.67 30.6538 14.6248 31.1192C14.6139 31.2553 14.6039 31.3916 14.5948 31.5279C14.5536 32.171 14.4336 32.2685 14.1017 32.3829C13.9274 32.4386 13.7624 32.5201 13.6123 32.6248C13.1471 32.9649 12.602 33.1793 12.0298 33.2473V33.2473ZM14.1111 29.8573C13.2499 29.8458 12.4067 30.1041 11.6998 30.596C11.3961 30.8173 10.9742 31.3348 11.0098 31.691C11.0204 31.7665 11.0518 31.8375 11.1005 31.8961C11.1492 31.9547 11.2132 31.9986 11.2854 32.0229L11.3661 32.0604V32.1485C11.3848 32.5348 11.5011 32.7823 11.7129 32.8873C12.1217 33.0898 12.8829 32.7785 13.4586 32.3829C13.6312 32.263 13.8208 32.1694 14.0211 32.1054C14.2386 32.0304 14.2836 32.0135 14.3154 31.5092C14.3154 31.3723 14.3342 31.2354 14.3454 31.0967C14.3837 30.6866 14.4 30.2747 14.3942 29.8629C14.2979 29.8592 14.2042 29.8573 14.1129 29.8573H14.1111Z" fill="black"/>
<path fill-rule="evenodd" clip-rule="evenodd" d="M11.2256 32.1564C11.461 32.1044 11.6757 31.9837 11.8425 31.8096Z" fill="#C6B198"/>
<path d="M11.2254 32.3045C11.1916 32.3032 11.1593 32.2904 11.1338 32.2682C11.1083 32.246 11.0912 32.2157 11.0853 32.1824C11.0794 32.1492 11.085 32.1148 11.1013 32.0852C11.1176 32.0556 11.1435 32.0324 11.1748 32.0195L11.2742 31.9839C11.4475 31.9443 11.6049 31.8535 11.726 31.7233C11.7367 31.7055 11.7509 31.6902 11.7679 31.6783C11.7848 31.6664 11.8041 31.6582 11.8244 31.6542C11.8447 31.6502 11.8656 31.6505 11.8858 31.655C11.906 31.6596 11.925 31.6684 11.9416 31.6808C11.9582 31.6932 11.972 31.7089 11.9822 31.7269C11.9923 31.745 11.9986 31.765 12.0005 31.7856C12.0025 31.8062 12.0001 31.827 11.9935 31.8466C11.9869 31.8662 11.9763 31.8843 11.9623 31.8995C11.8076 32.0775 11.6022 32.2038 11.3735 32.2614L11.2779 32.2952C11.2611 32.3015 11.2433 32.3047 11.2254 32.3045V32.3045Z" fill="black"/>
<path fill-rule="evenodd" clip-rule="evenodd" d="M14.8014 13.7042C8.87076 12.0373 13.2808 4.49982 18.0414 7.59732L14.8014 13.7042Z" fill="#6AD7E5"/>
<path d="M14.8763 13.875L14.7619 13.8431C14.0482 13.7217 13.3873 13.3887 12.8651 12.8872C12.3429 12.3857 11.9834 11.7389 11.8332 11.0306C11.7628 10.3029 11.8969 9.56992 12.2206 8.91433C12.5443 8.25875 13.0445 7.70656 13.6651 7.31995C14.3378 6.89531 15.1227 6.68274 15.9178 6.70982C16.7129 6.7369 17.4815 7.00239 18.1238 7.47183L18.2363 7.54495L14.8763 13.875ZM15.7182 7.0012C15.0458 7.0014 14.3879 7.19681 13.8244 7.5637C13.251 7.91878 12.788 8.42683 12.4876 9.03069C12.1872 9.63455 12.0612 10.3103 12.1238 10.9818C12.2586 11.6156 12.5774 12.1955 13.0404 12.6488C13.5034 13.1021 14.0898 13.4086 14.7263 13.53L17.8482 7.64808C17.2117 7.23997 16.4742 7.01726 15.7182 7.00495V7.0012Z" fill="black"/>
<path fill-rule="evenodd" clip-rule="evenodd" d="M41.145 7.03103C45.8325 3.73478 50.0794 11.1729 44.625 13.0442L41.145 7.03103Z" fill="#6AD7E5"/>
<path d="M44.5596 13.2226L40.9502 6.9882L41.0608 6.91132C41.6611 6.43068 42.391 6.1396 43.1573 6.07515C43.9236 6.01071 44.6918 6.17581 45.3639 6.54945C45.9993 6.92217 46.5187 7.46397 46.8643 8.11448C47.21 8.76499 47.3682 9.49868 47.3214 10.2338C47.2263 10.9343 46.9228 11.5901 46.4504 12.116C45.978 12.6419 45.3584 13.0137 44.6721 13.1832L44.5596 13.2226ZM41.3421 7.07445L44.6927 12.8626C45.2998 12.6972 45.845 12.357 46.2604 11.8843C46.6757 11.4116 46.943 10.8272 47.0289 10.2038C47.0711 9.52463 46.9239 8.84708 46.6038 8.24658C46.2837 7.64608 45.8032 7.1462 45.2158 6.80257C44.6161 6.45804 43.9274 6.2999 43.2375 6.34833C42.5476 6.39675 41.8878 6.64953 41.3421 7.07445V7.07445Z" fill="black"/>
<path fill-rule="evenodd" clip-rule="evenodd" d="M42.1556 51.2192C43.3481 51.9561 45.5306 54.1874 43.7381 55.2692C42.0206 56.8424 41.0587 53.5424 39.5493 53.0849C39.8393 52.6174 40.2188 52.212 40.6661 51.8918C41.1134 51.5716 41.6196 51.343 42.1556 51.2192V51.2192Z" fill="#F6D2A2"/>
<path d="M42.8326 55.8392H42.7614C42.0845 55.7979 41.522 55.1379 40.9782 54.4985C40.605 53.9558 40.0981 53.5186 39.5064 53.2292L39.3076 53.1692L39.4314 53.0004C40.043 52.0279 41.0142 51.3365 42.1332 51.0767H42.1876L42.2345 51.1048C42.9976 51.5773 44.5726 52.9573 44.5651 54.206C44.5612 54.4528 44.4906 54.6939 44.3609 54.9038C44.2312 55.1137 44.0472 55.2846 43.8282 55.3985C43.5642 55.6663 43.2084 55.8238 42.8326 55.8392V55.8392ZM39.7857 53.0267C40.3417 53.3541 40.8242 53.7926 41.2032 54.3148C41.7301 54.9335 42.2289 55.5185 42.7801 55.5523C42.941 55.5518 43.1001 55.5183 43.2475 55.4538C43.3949 55.3893 43.5275 55.2952 43.637 55.1773L43.6595 55.1604C43.838 55.0731 43.9891 54.9385 44.0962 54.7712C44.2033 54.6039 44.2624 54.4103 44.267 54.2117C44.267 53.2142 43.007 51.9617 42.122 51.3992C41.1655 51.6212 40.3299 52.1999 39.7857 53.0173V53.0267Z" fill="black"/>
<path d="M43.7383 55.4175C43.7111 55.4173 43.6845 55.4098 43.6613 55.3955C43.6382 55.3813 43.6194 55.361 43.607 55.3368C43.5198 55.1537 43.4428 54.966 43.3764 54.7743C43.2741 54.4139 43.0907 54.0817 42.8401 53.8031C42.8169 53.775 42.8049 53.7394 42.8063 53.703C42.8077 53.6666 42.8224 53.632 42.8477 53.6058C42.8729 53.5796 42.907 53.5637 42.9433 53.561C42.9796 53.5583 43.0156 53.569 43.0445 53.5912C43.3285 53.8999 43.5371 54.2702 43.6539 54.6731C43.7169 54.8519 43.7895 55.0271 43.8714 55.1981C43.889 55.2331 43.892 55.2738 43.8797 55.311C43.8674 55.3483 43.8408 55.3792 43.8058 55.3968C43.7853 55.4091 43.7621 55.4162 43.7383 55.4175V55.4175Z" fill="black"/>
<path fill-rule="evenodd" clip-rule="evenodd" d="M20.8573 53.7412C19.4586 53.9569 18.6711 55.2206 17.5048 55.8619C16.4061 56.5181 15.9842 55.6519 15.8867 55.4756C15.7142 55.3969 15.7292 55.5487 15.463 55.2881C14.4373 53.6719 16.5223 52.5 17.6061 51.6975C19.1155 51.3919 20.0623 52.7006 20.8573 53.7412Z" fill="#F6D2A2"/>
<path d="M16.7604 56.2501C16.6712 56.2506 16.5823 56.2393 16.496 56.2163C16.342 56.166 16.1995 56.0853 16.0771 55.9791C15.9548 55.8728 15.8549 55.7431 15.7835 55.5976H15.7498C15.626 55.5976 15.5342 55.5713 15.3504 55.3857L15.3298 55.3613C14.3492 53.8126 16.0179 52.6369 17.1242 51.8588C17.2629 51.7613 17.3942 51.6713 17.5123 51.5813L17.5385 51.5626H17.5704C19.1248 51.2476 20.1073 52.5338 20.8948 53.5669L21.1179 53.8576L20.8723 53.8951C20.0821 54.0847 19.3629 54.4973 18.8004 55.0838C18.4219 55.4299 18.0092 55.7365 17.5685 55.9988C17.3264 56.1531 17.0474 56.2399 16.7604 56.2501V56.2501ZM15.7723 55.3013C15.832 55.3014 15.8909 55.3148 15.9448 55.3407L15.9879 55.3613L16.0254 55.427C16.0782 55.5434 16.1539 55.6481 16.2479 55.7347C16.342 55.8214 16.4525 55.8882 16.5729 55.9313C16.7207 55.9588 16.8725 55.9563 17.0194 55.9241C17.1662 55.8919 17.3051 55.8306 17.4279 55.7438C17.8523 55.4902 18.2499 55.1944 18.6148 54.8607C19.1694 54.3065 19.8481 53.8925 20.5948 53.6532C19.8448 52.6669 18.9785 51.6019 17.666 51.8476C17.543 51.9372 17.4179 52.0241 17.291 52.1082C16.166 52.9032 14.756 53.8932 15.5679 55.1982C15.6842 55.3144 15.7123 55.3126 15.7367 55.3126L15.7723 55.3013Z" fill="black"/>
<path d="M15.8849 55.6221H15.8718C15.8328 55.6187 15.7967 55.6001 15.7714 55.5702C15.7461 55.5404 15.7337 55.5017 15.7368 55.4627C15.7973 55.0696 15.961 54.6995 16.2112 54.3902C16.3291 54.227 16.4326 54.0539 16.5205 53.8727C16.5382 53.8397 16.5677 53.8146 16.6031 53.8025C16.6385 53.7903 16.6771 53.792 16.7113 53.8072C16.7455 53.8224 16.7727 53.85 16.7874 53.8844C16.8021 53.9188 16.8032 53.9575 16.7905 53.9927C16.696 54.1896 16.5843 54.3778 16.4568 54.5552C16.2361 54.8253 16.09 55.1486 16.033 55.4927C16.0285 55.5287 16.0109 55.5617 15.9836 55.5855C15.9563 55.6094 15.9212 55.6224 15.8849 55.6221V55.6221Z" fill="black"/>
<path fill-rule="evenodd" clip-rule="evenodd" d="M15.0487 11.6252C14.2668 11.2109 13.693 10.6502 14.1712 9.75025C14.6137 8.91212 15.4368 9.00025 16.2187 9.4165L15.0487 11.6252Z" fill="black"/>
<path fill-rule="evenodd" clip-rule="evenodd" d="M43.3892 10.8337C44.1711 10.4194 44.7449 9.85874 44.2667 8.95874C43.8242 8.12062 43.0011 8.20874 42.2192 8.62499L43.3892 10.8337Z" fill="black"/>
<path fill-rule="evenodd" clip-rule="evenodd" d="M48.7744 31.9614C48.6994 33.5101 47.1525 32.7939 46.4512 32.3101C45.7856 31.8507 45.5906 32.2333 45.5325 31.3257C45.4722 30.7309 45.4477 30.1329 45.4594 29.5351C46.4924 29.4315 47.5287 29.6972 48.3844 30.2851C48.81 30.5945 49.605 31.5789 48.7744 31.9726" fill="#F6D2A2"/>
<path d="M47.9701 33.0506C47.3915 32.9863 46.8396 32.7724 46.3688 32.43C46.2187 32.3253 46.0538 32.2438 45.8794 32.1881C45.5476 32.0718 45.4276 31.9743 45.3863 31.3331C45.3863 31.1962 45.3676 31.0612 45.3563 30.9243C45.3112 30.4589 45.2968 29.991 45.3132 29.5237V29.3962L45.4407 29.385C46.5089 29.2739 47.5817 29.5486 48.4651 30.1593C48.6909 30.3141 48.8804 30.5163 49.0203 30.7517C49.1601 30.9871 49.2471 31.2501 49.2751 31.5225C49.2626 31.6354 49.2216 31.7434 49.1561 31.8362C49.0905 31.929 49.0024 32.0036 48.9001 32.0531C48.9047 32.2353 48.8601 32.4154 48.771 32.5745C48.6819 32.7335 48.5516 32.8656 48.3938 32.9568C48.2613 33.0191 48.1165 33.0511 47.9701 33.0506V33.0506ZM45.6019 29.6756C45.5961 30.0874 45.6124 30.4993 45.6507 30.9093L45.6807 31.3218C45.7126 31.8262 45.7576 31.8412 45.9751 31.9181C46.1753 31.9821 46.3649 32.0756 46.5376 32.1956C47.1113 32.5931 47.8744 32.9025 48.2832 32.7C48.4951 32.595 48.6113 32.3475 48.6301 31.9612V31.8731L48.7107 31.8356C48.7829 31.8113 48.8469 31.7674 48.8956 31.7088C48.9443 31.6502 48.9757 31.5792 48.9863 31.5037C49.0201 31.1475 48.6001 30.63 48.2963 30.4087C47.5093 29.8611 46.5582 29.6003 45.6019 29.67V29.6756Z" fill="black"/>
<path fill-rule="evenodd" clip-rule="evenodd" d="M48.7746 31.9611C48.5392 31.9091 48.3245 31.7884 48.1577 31.6143Z" fill="#C6B198"/>
<path d="M48.7744 32.1077C48.7576 32.1106 48.7405 32.1106 48.7238 32.1077L48.6281 32.0739C48.3995 32.0164 48.1939 31.8901 48.0394 31.712C48.0254 31.6968 48.0148 31.6787 48.0082 31.6591C48.0016 31.6395 47.9992 31.6187 48.0011 31.5981C48.0031 31.5775 48.0093 31.5575 48.0195 31.5394C48.0296 31.5214 48.0434 31.5056 48.06 31.4933C48.0766 31.4809 48.0956 31.4721 48.1158 31.4675C48.136 31.463 48.157 31.4627 48.1773 31.4667C48.1976 31.4707 48.2168 31.4789 48.2338 31.4908C48.2507 31.5027 48.265 31.518 48.2756 31.5358C48.3967 31.666 48.5542 31.7568 48.7275 31.7964L48.8269 31.832C48.8582 31.8449 48.8841 31.8681 48.9004 31.8977C48.9166 31.9273 48.9223 31.9616 48.9164 31.9949C48.9105 32.0282 48.8933 32.0585 48.8678 32.0807C48.8424 32.1029 48.81 32.1157 48.7763 32.117L48.7744 32.1077Z" fill="black"/>
<path fill-rule="evenodd" clip-rule="evenodd" d="M29.4056 3.89795C35.3419 3.89795 40.9069 4.74732 43.8075 10.4511C46.4119 16.8429 45.4856 23.7373 45.8831 30.4929C46.2244 36.2942 46.98 42.9954 44.2894 48.3729C41.4581 54.0279 34.3838 55.4511 28.5544 55.2429C23.9756 55.0798 18.4463 53.5854 15.8625 49.4023C12.8306 44.4954 14.2669 37.1979 14.4863 31.7379C14.7469 25.2711 12.735 18.7817 14.8613 12.4536C17.0663 5.89107 23.01 4.4042 29.4075 3.89795" fill="#6AD7E5"/>
<path d="M29.5689 55.4062C29.1939 55.4062 28.8564 55.4063 28.5507 55.3875C25.7382 55.2863 18.8457 54.5081 15.7389 49.4775C13.2882 45.51 13.7251 40.0256 14.1095 35.1863C14.207 33.9694 14.297 32.8181 14.342 31.7306C14.3858 29.4355 14.2874 27.1399 14.0476 24.8569C13.4099 20.7042 13.6397 16.4644 14.7226 12.405C15.1712 10.9584 15.9165 9.6211 16.9108 8.47859C17.9052 7.33607 19.1267 6.41337 20.4976 5.76937C23.309 4.54007 26.3279 3.85485 29.3945 3.75H29.4057C35.2014 3.75 40.9745 4.55438 43.9389 10.3838V10.395C45.5198 15.0756 46.1844 20.0168 45.8964 24.9487C45.9057 26.7656 45.917 28.6462 46.0239 30.4837C46.0557 31.0462 46.0932 31.6088 46.1307 32.1713C46.4757 37.4981 46.8657 43.5375 44.4151 48.4331C41.3607 54.5475 33.6507 55.4062 29.5689 55.4062V55.4062ZM29.4114 4.04438C23.2351 4.53375 17.2239 5.89687 14.9982 12.4987C13.9299 16.5204 13.7046 20.7196 14.3364 24.8325C14.5753 27.1281 14.6718 29.4362 14.6251 31.7438C14.5801 32.8388 14.4901 33.9938 14.3926 35.2125C14.0176 40.0069 13.5789 45.4406 15.9789 49.3256C19.0126 54.2362 25.7814 54.9975 28.5507 55.095C32.1545 55.2244 40.8864 54.8194 44.147 48.3056C46.562 43.4813 46.1739 37.485 45.8345 32.1956L45.7276 30.5081C45.6189 28.6631 45.6095 26.7787 45.6001 24.9581C45.8861 20.0662 45.2299 15.165 43.667 10.5206C40.7814 4.83 35.1095 4.04625 29.4114 4.04438V4.04438Z" fill="black"/>
<path fill-rule="evenodd" clip-rule="evenodd" d="M30.4538 11.8667C31.5188 18.0542 41.6475 16.4248 40.1925 10.1792C38.88 4.57666 30.0994 6.12728 30.4538 11.8667Z" fill="white"/>
<path d="M35.2649 15.9093C34.6348 15.9117 34.0087 15.809 33.4124 15.6056C32.6005 15.337 31.8799 14.8466 31.3322 14.1899C30.7844 13.5332 30.4314 12.7362 30.313 11.8893V11.8743C30.2383 10.5795 30.6687 9.30624 31.5135 8.32223C32.3583 7.33822 33.5518 6.72017 34.843 6.59806C36.0401 6.34965 37.287 6.58233 38.3139 7.2458C39.3409 7.90928 40.0655 8.95025 40.3311 10.1437C40.5509 10.9208 40.5492 11.7439 40.3262 12.5201C40.1033 13.2963 39.6679 13.9948 39.0693 14.5368C38.0087 15.4391 36.6572 15.9267 35.2649 15.9093V15.9093ZM30.5961 11.8499C30.7087 12.6444 31.0407 13.3917 31.5548 14.0078C32.0689 14.624 32.7447 15.0844 33.5061 15.3374C34.4135 15.6417 35.3836 15.7083 36.324 15.5311C37.2644 15.3538 38.1437 14.9386 38.878 14.3249C39.4396 13.8157 39.8473 13.1594 40.0551 12.4304C40.2629 11.7013 40.2624 10.9287 40.0536 10.1999C39.8001 9.07699 39.1145 8.09908 38.1452 7.47793C37.176 6.85679 36.0011 6.6424 34.8749 6.88119C33.6581 6.99657 32.5331 7.57826 31.7355 8.50444C30.938 9.43063 30.5297 10.6295 30.5961 11.8499V11.8499Z" fill="black"/>
<path fill-rule="evenodd" clip-rule="evenodd" d="M18.3527 12.8682C19.7327 18.2626 28.3689 16.8751 28.0427 11.4713C27.6527 4.99132 17.0308 6.24195 18.3508 12.8682" fill="white"/>
<path d="M22.9594 16.427C22.0811 16.4354 21.2145 16.2253 20.4376 15.8157C19.8829 15.5146 19.3983 15.0994 19.0157 14.5975C18.6331 14.0956 18.3611 13.5184 18.2176 12.9039C18.0044 12.0641 18.0371 11.1808 18.3116 10.359C18.5862 9.53731 19.0911 8.81179 19.7663 8.26885C20.5809 7.64765 21.545 7.25227 22.5612 7.12256C23.5774 6.99286 24.6099 7.13343 25.5544 7.5301C26.3232 7.86593 26.9794 8.41557 27.4448 9.11363C27.9101 9.81169 28.1651 10.6288 28.1794 11.4676C28.223 12.6769 27.8027 13.8571 27.0044 14.7666C26.2062 15.676 25.0904 16.2459 23.8857 16.3595C23.5791 16.4059 23.2695 16.4284 22.9594 16.427V16.427ZM18.4876 12.8382C18.7848 13.9688 19.5102 14.9393 20.5104 15.5444C21.5106 16.1495 22.707 16.3416 23.8463 16.0801C24.9821 15.9755 26.035 15.4409 26.7896 14.5855C27.5442 13.7302 27.9435 12.6188 27.9057 11.4789C27.8937 10.69 27.6551 9.92127 27.2182 9.26432C26.7814 8.60738 26.1648 8.08998 25.4419 7.77385C24.544 7.39637 23.5624 7.26242 22.5962 7.38555C21.63 7.50867 20.7133 7.8845 19.9388 8.4751C19.3043 8.9869 18.8302 9.67021 18.5729 10.4437C18.3157 11.2172 18.286 12.0484 18.4876 12.8382V12.8382Z" fill="black"/>
<path fill-rule="evenodd" clip-rule="evenodd" d="M31.6763 19.3015C31.765 20.1544 31.7751 21.0136 31.7063 21.8684C31.5 22.2565 31.0969 22.2977 30.75 22.4552C30.5136 22.4181 30.2905 22.3213 30.1019 22.174C29.9132 22.0267 29.7653 21.8337 29.6719 21.6134C29.6202 20.6447 29.6459 19.6735 29.7488 18.709L31.6763 19.3015Z" fill="white"/>
<path d="M30.7704 22.6067H30.7273C30.4652 22.5652 30.2182 22.4572 30.0098 22.2931C29.8014 22.129 29.6385 21.9142 29.5366 21.6692V21.6298C29.4742 20.9666 29.4798 20.2988 29.5535 19.6367C29.5779 19.3311 29.6023 19.0161 29.6116 18.6992V18.5117L31.826 19.1905V19.2992C31.826 19.5655 31.8485 19.8411 31.871 20.1317C31.9399 20.7169 31.9348 21.3084 31.856 21.8923V21.9148L31.8448 21.9355C31.7594 22.0763 31.6468 22.1986 31.5135 22.2952C31.3802 22.3918 31.2289 22.4607 31.0685 22.498C30.9804 22.5298 30.8979 22.558 30.8173 22.5955L30.7704 22.6067ZM29.816 21.5736C29.8983 21.7598 30.0245 21.9233 30.1839 22.0501C30.3433 22.1768 30.531 22.2629 30.731 22.3011C30.8079 22.2692 30.8866 22.2411 30.9616 22.213C31.2057 22.1623 31.4215 22.0209 31.5654 21.8173C31.6324 21.265 31.6324 20.7066 31.5654 20.1542C31.5466 19.8973 31.5279 19.6517 31.5223 19.4042L29.8816 18.9017C29.8685 19.1567 29.8498 19.4098 29.831 19.6517C29.7596 20.29 29.7533 20.934 29.8123 21.5736H29.816Z" fill="black"/>
<path d="M20.7337 13.5677C21.5393 13.5677 22.1924 12.8608 22.1924 11.9889C22.1924 11.117 21.5393 10.4102 20.7337 10.4102C19.928 10.4102 19.2749 11.117 19.2749 11.9889C19.2749 12.8608 19.928 13.5677 20.7337 13.5677Z" fill="black"/>
<path d="M21.3973 12.7463C21.5868 12.7463 21.7404 12.5667 21.7404 12.3451C21.7404 12.1235 21.5868 11.9438 21.3973 11.9438C21.2078 11.9438 21.0542 12.1235 21.0542 12.3451C21.0542 12.5667 21.2078 12.7463 21.3973 12.7463Z" fill="white"/>
<path d="M32.9515 13.1736C33.7436 13.1736 34.3858 12.4668 34.3858 11.5949C34.3858 10.7229 33.7436 10.0161 32.9515 10.0161C32.1593 10.0161 31.5171 10.7229 31.5171 11.5949C31.5171 12.4668 32.1593 13.1736 32.9515 13.1736Z" fill="black"/>
<path d="M33.6036 12.3523C33.79 12.3523 33.9411 12.1727 33.9411 11.9511C33.9411 11.7295 33.79 11.5498 33.6036 11.5498C33.4172 11.5498 33.2661 11.7295 33.2661 11.9511C33.2661 12.1727 33.4172 12.3523 33.6036 12.3523Z" fill="white"/>
<path fill-rule="evenodd" clip-rule="evenodd" d="M27.5081 19.2133C26.8725 20.7545 27.8625 23.8389 29.5893 21.5645C29.5376 20.5959 29.5633 19.6247 29.6662 18.6602L27.5081 19.2133Z" fill="white"/>
<path d="M28.4363 22.5244C28.2873 22.5236 28.1411 22.4835 28.0126 22.4081C27.5988 21.989 27.3176 21.4575 27.2039 20.8797C27.0902 20.3018 27.1491 19.7033 27.3732 19.1588L27.4013 19.0912L29.8126 18.4688V18.6562C29.8032 18.975 29.777 19.2937 29.7526 19.5937C29.6797 20.2358 29.6734 20.8836 29.7338 21.5269V21.5869L29.6982 21.6356C29.2013 22.3125 28.772 22.5244 28.4363 22.5244ZM27.6188 19.3369C27.44 19.8098 27.3957 20.323 27.4911 20.8195C27.5864 21.316 27.8175 21.7764 28.1588 22.1494C28.6051 22.4044 29.0963 21.9619 29.4357 21.5212C29.3816 20.8776 29.3897 20.2302 29.4601 19.5881C29.4788 19.3462 29.4976 19.0987 29.5107 18.8531L27.6188 19.3369Z" fill="black"/>
<path fill-rule="evenodd" clip-rule="evenodd" d="M27.7254 16.2431C27.4295 16.2709 27.1444 16.3687 26.8937 16.5284C26.643 16.688 26.4338 16.905 26.2835 17.1614C26.1331 17.4178 26.0459 17.7062 26.0289 18.003C26.012 18.2997 26.0658 18.5963 26.186 18.8681C27.0017 20.3456 28.8242 18.7369 29.9604 18.8887C31.2729 18.915 32.3379 20.2706 33.386 19.1344C34.5523 17.8706 32.8835 16.6387 31.5785 16.0894L27.7254 16.2431Z" fill="#F6D2A2"/>
<path d="M32.4527 19.7363C32.0341 19.7034 31.6259 19.5894 31.2508 19.4006C30.8466 19.1998 30.4085 19.0764 29.9589 19.0369H29.942C29.482 19.0372 29.0271 19.1343 28.607 19.3219C27.6864 19.6406 26.642 20.0006 26.057 18.9469C25.9152 18.6816 25.8433 18.3846 25.8479 18.0838C25.8525 17.783 25.9335 17.4884 26.0833 17.2275C26.2411 16.9202 26.4725 16.6568 26.7568 16.4605C27.041 16.2642 27.3694 16.1413 27.7127 16.1025L31.607 15.9375L31.637 15.9506C32.6064 16.3594 33.7108 17.1075 33.9002 17.9813C33.9256 18.1922 33.9078 18.4062 33.848 18.6101C33.7882 18.814 33.6875 19.0036 33.5521 19.1674C33.4167 19.3312 33.2494 19.4658 33.0604 19.5629C32.8714 19.6601 32.6646 19.7178 32.4527 19.7325V19.7363ZM29.972 18.75C30.4566 18.7897 30.9293 18.9208 31.3652 19.1363C32.102 19.4456 32.6777 19.6894 33.2795 19.0425C33.4138 18.9188 33.5147 18.7632 33.5731 18.5902C33.6314 18.4172 33.6452 18.2323 33.6133 18.0525C33.4502 17.3025 32.4095 16.6106 31.5508 16.245L27.7333 16.3969C27.4402 16.4338 27.1605 16.5413 26.9182 16.7101C26.6759 16.879 26.4781 17.1041 26.342 17.3663C26.2159 17.5839 26.1471 17.8301 26.1422 18.0817C26.1373 18.3332 26.1964 18.5819 26.3139 18.8044C26.7789 19.6463 27.6264 19.3556 28.5077 19.0481C28.9684 18.8439 29.4681 18.7422 29.972 18.75V18.75Z" fill="#231F20"/>
<path fill-rule="evenodd" clip-rule="evenodd" d="M27.5776 16.1814C27.4895 14.1282 31.4064 13.8751 31.8751 15.5907C32.3439 17.3064 27.7764 17.7057 27.5833 16.1832L27.5776 16.1814Z" fill="black"/>
</svg>
