<svg width="116" height="40" viewBox="0 0 116 40" fill="none" xmlns="http://www.w3.org/2000/svg">
<path d="M17.4997 39.9257C16.9564 39.9257 16.4493 39.779 15.9784 39.5223L11.1605 36.6246C10.436 36.2211 10.7982 36.0744 11.0156 36.001C11.9936 35.6709 12.1747 35.5976 13.1889 35.0106C13.2977 34.9372 13.4426 34.9739 13.5512 35.0473L17.2462 37.2848C17.3911 37.3581 17.5722 37.3581 17.6808 37.2848L32.1344 28.8118C32.2793 28.7385 32.3518 28.5918 32.3518 28.4084V11.4989C32.3518 11.3155 32.2793 11.1688 32.1344 11.0954L17.6808 2.65903C17.5359 2.58567 17.3548 2.58567 17.2462 2.65903L2.79258 11.0956C2.64768 11.1689 2.57524 11.3523 2.57524 11.499V28.4084C2.57524 28.5551 2.64768 28.7385 2.79258 28.8118L6.74114 31.1226C8.87842 32.2229 10.2185 30.9392 10.2185 29.6554V12.966C10.2185 12.746 10.3998 12.5259 10.6533 12.5259H12.5008C12.7182 12.5259 12.9355 12.7093 12.9355 12.966V29.6553C12.9355 32.553 11.3778 34.2402 8.66095 34.2402C7.82782 34.2402 7.17581 34.2402 5.32845 33.3233L1.52478 31.1226C0.582983 30.5722 0.00341797 29.5453 0.00341797 28.4449V11.5357C0.00341797 10.4354 0.582983 9.40837 1.52478 8.85806L15.9784 0.385121C16.8839 -0.128374 18.1155 -0.128374 19.0211 0.385121L33.4747 8.85806C34.4165 9.40824 34.996 10.4352 34.996 11.5357V28.4451C34.996 29.5454 34.4165 30.5724 33.4747 31.1226L19.0211 39.5958C18.5502 39.8158 18.0068 39.9259 17.4997 39.9259V39.9257ZM21.9553 28.2982C15.616 28.2982 14.312 25.3639 14.312 22.8697C14.312 22.6496 14.4931 22.4295 14.7467 22.4295H16.6302C16.8476 22.4295 17.0288 22.5763 17.0288 22.7963C17.3186 24.7403 18.1517 25.694 21.9915 25.694C25.0343 25.694 26.3385 24.9972 26.3385 23.3466C26.3385 22.3929 25.9763 21.696 21.2308 21.219C17.2824 20.8156 14.8191 19.9353 14.8191 16.7443C14.8191 13.7731 17.2823 12.0125 21.4119 12.0125C26.0486 12.0125 28.3308 13.6264 28.6205 17.1476C28.6205 17.2576 28.5843 17.3677 28.5119 17.4777C28.4394 17.5511 28.3308 17.6244 28.2221 17.6244H26.3385C26.1573 17.6244 25.9763 17.4777 25.9399 17.2943C25.5052 15.277 24.3823 14.6168 21.4119 14.6168C18.0794 14.6168 17.6808 15.7905 17.6808 16.6708C17.6808 17.7346 18.1517 18.0646 22.6435 18.6514C27.0992 19.2383 29.2001 20.082 29.2001 23.2365C29.1639 26.4643 26.5558 28.2982 21.9553 28.2982V28.2982Z" fill="url(#paint0_linear_3813_9220)"/>
<path d="M55.5 27H53.68L46.36 15.9V27H44.54V13.04H46.36L53.68 24.12V13.04H55.5V27ZM63.3825 27.18C62.3558 27.18 61.4225 26.9467 60.5825 26.48C59.7558 26.0133 59.1025 25.3533 58.6225 24.5C58.1558 23.6333 57.9225 22.6333 57.9225 21.5C57.9225 20.38 58.1625 19.3933 58.6425 18.54C59.1358 17.6733 59.8025 17.0133 60.6425 16.56C61.4825 16.0933 62.4225 15.86 63.4625 15.86C64.5025 15.86 65.4425 16.0933 66.2825 16.56C67.1225 17.0133 67.7825 17.6667 68.2625 18.52C68.7558 19.3733 69.0025 20.3667 69.0025 21.5C69.0025 22.6333 68.7492 23.6333 68.2425 24.5C67.7492 25.3533 67.0758 26.0133 66.2225 26.48C65.3692 26.9467 64.4225 27.18 63.3825 27.18ZM63.3825 25.58C64.0358 25.58 64.6492 25.4267 65.2225 25.12C65.7958 24.8133 66.2558 24.3533 66.6025 23.74C66.9625 23.1267 67.1425 22.38 67.1425 21.5C67.1425 20.62 66.9692 19.8733 66.6225 19.26C66.2758 18.6467 65.8225 18.1933 65.2625 17.9C64.7025 17.5933 64.0958 17.44 63.4425 17.44C62.7758 17.44 62.1625 17.5933 61.6025 17.9C61.0558 18.1933 60.6158 18.6467 60.2825 19.26C59.9492 19.8733 59.7825 20.62 59.7825 21.5C59.7825 22.3933 59.9425 23.1467 60.2625 23.76C60.5958 24.3733 61.0358 24.8333 61.5825 25.14C62.1292 25.4333 62.7292 25.58 63.3825 25.58ZM70.7155 21.48C70.7155 20.36 70.9421 19.38 71.3955 18.54C71.8488 17.6867 72.4688 17.0267 73.2555 16.56C74.0555 16.0933 74.9488 15.86 75.9355 15.86C76.7888 15.86 77.5821 16.06 78.3155 16.46C79.0488 16.8467 79.6088 17.36 79.9955 18V12.2H81.8355V27H79.9955V24.94C79.6355 25.5933 79.1021 26.1333 78.3955 26.56C77.6888 26.9733 76.8621 27.18 75.9155 27.18C74.9421 27.18 74.0555 26.94 73.2555 26.46C72.4688 25.98 71.8488 25.3067 71.3955 24.44C70.9421 23.5733 70.7155 22.5867 70.7155 21.48ZM79.9955 21.5C79.9955 20.6733 79.8288 19.9533 79.4955 19.34C79.1621 18.7267 78.7088 18.26 78.1355 17.94C77.5755 17.6067 76.9555 17.44 76.2755 17.44C75.5955 17.44 74.9755 17.6 74.4155 17.92C73.8555 18.24 73.4088 18.7067 73.0755 19.32C72.7421 19.9333 72.5755 20.6533 72.5755 21.48C72.5755 22.32 72.7421 23.0533 73.0755 23.68C73.4088 24.2933 73.8555 24.7667 74.4155 25.1C74.9755 25.42 75.5955 25.58 76.2755 25.58C76.9555 25.58 77.5755 25.42 78.1355 25.1C78.7088 24.7667 79.1621 24.2933 79.4955 23.68C79.8288 23.0533 79.9955 22.3267 79.9955 21.5ZM94.9111 21.1C94.9111 21.4467 94.8911 21.8133 94.8511 22.2H86.0911C86.1578 23.28 86.5244 24.1267 87.1911 24.74C87.8711 25.34 88.6911 25.64 89.6511 25.64C90.4378 25.64 91.0911 25.46 91.6111 25.1C92.1444 24.7267 92.5178 24.2333 92.7311 23.62H94.6911C94.3978 24.6733 93.8111 25.5333 92.9311 26.2C92.0511 26.8533 90.9578 27.18 89.6511 27.18C88.6111 27.18 87.6778 26.9467 86.8511 26.48C86.0378 26.0133 85.3978 25.3533 84.9311 24.5C84.4644 23.6333 84.2311 22.6333 84.2311 21.5C84.2311 20.3667 84.4578 19.3733 84.9111 18.52C85.3644 17.6667 85.9978 17.0133 86.8111 16.56C87.6378 16.0933 88.5844 15.86 89.6511 15.86C90.6911 15.86 91.6111 16.0867 92.4111 16.54C93.2111 16.9933 93.8244 17.62 94.2511 18.42C94.6911 19.2067 94.9111 20.1 94.9111 21.1ZM93.0311 20.72C93.0311 20.0267 92.8778 19.4333 92.5711 18.94C92.2644 18.4333 91.8444 18.0533 91.3111 17.8C90.7911 17.5333 90.2111 17.4 89.5711 17.4C88.6511 17.4 87.8644 17.6933 87.2111 18.28C86.5711 18.8667 86.2044 19.68 86.1111 20.72H93.0311ZM97.8934 27.12C97.5468 27.12 97.2534 27 97.0134 26.76C96.7734 26.52 96.6534 26.2267 96.6534 25.88C96.6534 25.5333 96.7734 25.24 97.0134 25C97.2534 24.76 97.5468 24.64 97.8934 24.64C98.2268 24.64 98.5068 24.76 98.7334 25C98.9734 25.24 99.0934 25.5333 99.0934 25.88C99.0934 26.2267 98.9734 26.52 98.7334 26.76C98.5068 27 98.2268 27.12 97.8934 27.12ZM102.493 14.26C102.146 14.26 101.853 14.14 101.613 13.9C101.386 13.66 101.273 13.3667 101.273 13.02C101.273 12.6733 101.386 12.38 101.613 12.14C101.853 11.9 102.146 11.78 102.493 11.78C102.839 11.78 103.126 11.9 103.353 12.14C103.593 12.38 103.713 12.6733 103.713 13.02C103.713 13.3667 103.593 13.66 103.353 13.9C103.126 14.14 102.839 14.26 102.493 14.26ZM103.393 29.38C103.393 30.3533 103.146 31.0667 102.653 31.52C102.159 31.9733 101.439 32.2 100.493 32.2H99.4327V30.66H100.193C100.699 30.66 101.053 30.56 101.253 30.36C101.466 30.16 101.573 29.82 101.573 29.34V16.04H103.393V29.38ZM110.354 27.18C109.514 27.18 108.76 27.04 108.094 26.76C107.427 26.4667 106.9 26.0667 106.514 25.56C106.127 25.04 105.914 24.4467 105.874 23.78H107.754C107.807 24.3267 108.06 24.7733 108.514 25.12C108.98 25.4667 109.587 25.64 110.334 25.64C111.027 25.64 111.574 25.4867 111.974 25.18C112.374 24.8733 112.574 24.4867 112.574 24.02C112.574 23.54 112.36 23.1867 111.934 22.96C111.507 22.72 110.847 22.4867 109.954 22.26C109.14 22.0467 108.474 21.8333 107.954 21.62C107.447 21.3933 107.007 21.0667 106.634 20.64C106.274 20.2 106.094 19.6267 106.094 18.92C106.094 18.36 106.26 17.8467 106.594 17.38C106.927 16.9133 107.4 16.5467 108.014 16.28C108.627 16 109.327 15.86 110.114 15.86C111.327 15.86 112.307 16.1667 113.054 16.78C113.8 17.3933 114.2 18.2333 114.254 19.3H112.434C112.394 18.7267 112.16 18.2667 111.734 17.92C111.32 17.5733 110.76 17.4 110.054 17.4C109.4 17.4 108.88 17.54 108.494 17.82C108.107 18.1 107.914 18.4667 107.914 18.92C107.914 19.28 108.027 19.58 108.254 19.82C108.494 20.0467 108.787 20.2333 109.134 20.38C109.494 20.5133 109.987 20.6667 110.614 20.84C111.4 21.0533 112.04 21.2667 112.534 21.48C113.027 21.68 113.447 21.9867 113.794 22.4C114.154 22.8133 114.34 23.3533 114.354 24.02C114.354 24.62 114.187 25.16 113.854 25.64C113.52 26.12 113.047 26.5 112.434 26.78C111.834 27.0467 111.14 27.18 110.354 27.18Z" fill="#7C7C7F"/>
<defs>
<linearGradient id="paint0_linear_3813_9220" x1="17.4997" y1="0" x2="17.4997" y2="39.9259" gradientUnits="userSpaceOnUse">
<stop stop-color="#539E43"/>
<stop offset="1" stop-color="#7C7C7F"/>
</linearGradient>
</defs>
</svg>
