<svg width="111" height="39" viewBox="0 0 111 39" fill="none" xmlns="http://www.w3.org/2000/svg">
<path d="M21.875 23.332C24.0324 23.332 25.7812 21.5831 25.7812 19.4258C25.7812 17.2684 24.0324 15.5195 21.875 15.5195C19.7176 15.5195 17.9688 17.2684 17.9688 19.4258C17.9688 21.5831 19.7176 23.332 21.875 23.332Z" fill="url(#paint0_linear_3815_9058)"/>
<path d="M21.875 28.3818C17.1799 28.4954 12.4966 27.8625 8 26.5068C5.92285 25.8483 3.98552 24.8111 2.28594 23.4474C1.63739 22.9816 1.0973 22.3809 0.702722 21.6867C0.308145 20.9925 0.0684213 20.2211 0 19.4256C0 16.8427 2.8375 14.3115 7.59062 12.6552C12.2074 11.1877 17.0311 10.4764 21.875 10.549C26.6542 10.4822 31.4133 11.1806 35.9719 12.6177C37.9723 13.2555 39.844 14.2426 41.5 15.5334C42.1375 15.9775 42.6695 16.5564 43.0583 17.229C43.4471 17.9016 43.6833 18.6515 43.75 19.4256C43.75 22.1099 40.5781 24.8302 35.4688 26.5209C31.0593 27.8324 26.4747 28.46 21.875 28.3818V28.3818ZM21.875 12.4177C17.2408 12.3558 12.6263 13.032 8.20469 14.4209C3.82969 15.9474 1.86875 18.0349 1.86875 19.4209C1.86875 20.8709 3.97656 23.1506 8.60469 24.7334C12.9064 26.0238 17.3853 26.6244 21.875 26.5131C26.2756 26.5917 30.6624 25.9963 34.8828 24.7474C39.6875 23.1552 41.875 20.8724 41.875 19.4256C41.7962 18.929 41.6152 18.4543 41.3436 18.0312C41.072 17.6082 40.7156 17.2461 40.2969 16.9677C38.8152 15.8227 37.1433 14.9478 35.3578 14.3834C30.9969 13.0142 26.4453 12.3507 21.875 12.4177V12.4177Z" fill="url(#paint1_linear_3815_9058)"/>
<path d="M12.9999 38.9086C12.271 38.9253 11.5507 38.7484 10.9124 38.396C8.67488 37.1054 7.89988 33.3835 8.83894 28.4382C9.87433 23.7056 11.6683 19.1715 14.1514 15.0117C16.4807 10.8384 19.4627 7.06466 22.9843 3.83355C24.5361 2.41902 26.3262 1.29064 28.2718 0.500733C28.9754 0.170951 29.7431 0 30.5202 0C31.2973 0 32.0649 0.170951 32.7686 0.500733C35.0952 1.84136 35.8655 5.94761 34.7796 11.2179C33.7122 15.6938 31.9648 19.9795 29.5983 23.9257C27.351 28.0497 24.463 31.7906 21.0421 35.0085C19.4339 36.4785 17.5676 37.6382 15.5374 38.4289C14.7246 38.7305 13.8667 38.8927 12.9999 38.9086V38.9086ZM15.7702 15.9398C13.4016 19.9231 11.6822 24.2581 10.6764 28.782C9.81238 33.3367 10.6421 36.0757 11.8483 36.7726C13.0983 37.496 16.1327 36.8101 19.8171 33.5914C23.0827 30.5085 25.8393 26.9276 27.9843 22.982C30.2513 19.2094 31.9275 15.1119 32.9546 10.832C33.9764 5.87105 33.0936 2.83355 31.8405 2.11167C31.3708 1.93171 30.8689 1.85115 30.3665 1.87509C29.8642 1.89903 29.3722 2.02694 28.9218 2.25073C27.19 2.96534 25.5979 3.97984 24.2186 5.24761C20.8541 8.34259 18.0056 11.9553 15.7811 15.9492L15.7702 15.9398Z" fill="url(#paint2_linear_3815_9058)"/>
<path d="M30.7453 38.9289C28.6281 38.9289 25.9391 37.6476 23.1391 35.2398C19.5558 31.9793 16.5234 28.1608 14.1594 23.932C11.7074 19.8295 9.92762 15.361 8.88751 10.6961C8.43643 8.64372 8.35284 6.52763 8.64063 4.44609C8.70717 3.67391 8.9423 2.92573 9.32944 2.25431C9.71658 1.58289 10.2463 1.00457 10.8813 0.560148C13.2047 -0.785165 17.1469 0.597648 21.1703 4.16952C24.515 7.32919 27.3553 10.9831 29.5922 15.0039C32.0427 19.0107 33.8411 23.3813 34.9203 27.9523C35.3908 30.08 35.4634 32.2764 35.1344 34.4305C35.0561 35.2248 34.807 35.9929 34.404 36.682C34.0011 37.3711 33.4539 37.9649 32.8 38.4227C32.1722 38.7707 31.463 38.9454 30.7453 38.9289V38.9289ZM15.7766 22.9914C18.0444 27.0327 20.9411 30.6873 24.3578 33.818C27.8719 36.8414 30.6594 37.4914 31.8578 36.7867C33.1078 36.0601 34.0297 33.0945 33.0797 28.2961C32.0389 23.9319 30.3139 19.76 27.9688 15.9351C25.8341 12.0869 23.123 8.58806 19.9297 5.56015C16.1422 2.19765 13.0703 1.44609 11.8188 2.17109C11.4287 2.48809 11.1086 2.88253 10.8786 3.3295C10.6487 3.77648 10.5139 4.26627 10.4828 4.76796C10.2344 6.62435 10.3153 8.51 10.7219 10.3383C11.7224 14.7994 13.4293 19.072 15.7781 22.9945L15.7766 22.9914Z" fill="url(#paint3_linear_3815_9058)"/>
<path d="M21.875 23.332C24.0324 23.332 25.7812 21.5831 25.7812 19.4258C25.7812 17.2684 24.0324 15.5195 21.875 15.5195C19.7176 15.5195 17.9688 17.2684 17.9688 19.4258C17.9688 21.5831 19.7176 23.332 21.875 23.332Z" fill="url(#paint4_linear_3815_9058)"/>
<path d="M21.875 28.3818C17.1799 28.4954 12.4966 27.8625 8 26.5068C5.92285 25.8484 3.98552 24.8111 2.28594 23.4474C1.63739 22.9816 1.0973 22.3809 0.702722 21.6867C0.308145 20.9925 0.0684213 20.2211 0 19.4256C0 16.8427 2.8375 14.3115 7.59062 12.6552C12.2074 11.1877 17.0311 10.4764 21.875 10.549C26.6542 10.4822 31.4133 11.1806 35.9719 12.6177C37.9723 13.2555 39.844 14.2426 41.5 15.5334C42.1375 15.9775 42.6695 16.5564 43.0583 17.229C43.4471 17.9016 43.6833 18.6515 43.75 19.4256C43.75 22.1099 40.5781 24.8302 35.4688 26.5209C31.0593 27.8324 26.4747 28.46 21.875 28.3818V28.3818ZM21.875 12.4177C17.2408 12.3558 12.6263 13.032 8.20469 14.4209C3.82969 15.9474 1.86875 18.0349 1.86875 19.4209C1.86875 20.8709 3.97656 23.1506 8.60469 24.7334C12.9064 26.0238 17.3853 26.6244 21.875 26.5131C26.2756 26.5918 30.6624 25.9963 34.8828 24.7474C39.6875 23.1552 41.875 20.8724 41.875 19.4256C41.7962 18.929 41.6152 18.4543 41.3436 18.0312C41.072 17.6082 40.7156 17.2461 40.2969 16.9677C38.8152 15.8227 37.1433 14.9478 35.3578 14.3834C30.9969 13.0142 26.4453 12.3507 21.875 12.4177V12.4177Z" fill="url(#paint5_linear_3815_9058)"/>
<path d="M12.9999 38.9086C12.271 38.9253 11.5507 38.7484 10.9124 38.396C8.67488 37.1054 7.89988 33.3835 8.83894 28.4382C9.87433 23.7056 11.6683 19.1715 14.1514 15.0117C16.4807 10.8384 19.4627 7.06466 22.9843 3.83355C24.5361 2.41902 26.3262 1.29064 28.2718 0.500733C28.9754 0.170951 29.7431 0 30.5202 0C31.2973 0 32.0649 0.170951 32.7686 0.500733C35.0952 1.84136 35.8655 5.94761 34.7796 11.2179C33.7122 15.6938 31.9648 19.9795 29.5983 23.9257C27.351 28.0497 24.463 31.7906 21.0421 35.0085C19.4339 36.4785 17.5676 37.6382 15.5374 38.4289C14.7246 38.7305 13.8667 38.8927 12.9999 38.9086V38.9086ZM15.7702 15.9398C13.4016 19.9231 11.6822 24.2581 10.6764 28.782C9.81238 33.3367 10.6421 36.0757 11.8483 36.7726C13.0983 37.496 16.1327 36.8101 19.8171 33.5914C23.0827 30.5085 25.8393 26.9276 27.9843 22.982C30.2513 19.2094 31.9275 15.1119 32.9546 10.832C33.9764 5.87105 33.0936 2.83355 31.8405 2.11167C31.3708 1.93171 30.8689 1.85115 30.3665 1.87509C29.8642 1.89903 29.3722 2.02694 28.9218 2.25073C27.19 2.96534 25.5979 3.97984 24.2186 5.24761C20.8541 8.34259 18.0056 11.9553 15.7811 15.9492L15.7702 15.9398Z" fill="url(#paint6_linear_3815_9058)"/>
<path d="M30.7453 38.9289C28.6281 38.9289 25.9391 37.6476 23.1391 35.2398C19.5558 31.9793 16.5234 28.1608 14.1594 23.932C11.7074 19.8295 9.92762 15.361 8.88751 10.6961C8.43643 8.64372 8.35284 6.52763 8.64063 4.44609C8.70717 3.67391 8.9423 2.92573 9.32944 2.25431C9.71658 1.58289 10.2463 1.00457 10.8813 0.560148C13.2047 -0.785165 17.1469 0.597648 21.1703 4.16952C24.515 7.32919 27.3553 10.9831 29.5922 15.0039C32.0427 19.0107 33.8411 23.3813 34.9203 27.9523C35.3908 30.08 35.4634 32.2764 35.1344 34.4305C35.0561 35.2248 34.807 35.9929 34.404 36.682C34.0011 37.3711 33.4539 37.9649 32.8 38.4227C32.1721 38.7707 31.463 38.9454 30.7453 38.9289V38.9289ZM15.7766 22.9914C18.0444 27.0327 20.9411 30.6873 24.3578 33.818C27.8719 36.8414 30.6594 37.4914 31.8578 36.7867C33.1078 36.0601 34.0297 33.0945 33.0797 28.2961C32.0389 23.9319 30.3139 19.76 27.9688 15.9351C25.8341 12.0869 23.123 8.58806 19.9297 5.56015C16.1422 2.19765 13.0703 1.44609 11.8188 2.17109C11.4287 2.48809 11.1086 2.88253 10.8786 3.3295C10.6487 3.77648 10.5139 4.26627 10.4828 4.76796C10.2344 6.62435 10.3153 8.51 10.7219 10.3383C11.7224 14.7994 13.4293 19.072 15.7781 22.9945L15.7766 22.9914Z" fill="url(#paint7_linear_3815_9058)"/>
<path d="M61.755 26.4663L58.435 20.7663H56.235V26.4663H54.415V12.5263H58.915C59.9683 12.5263 60.855 12.7063 61.575 13.0663C62.3083 13.4263 62.855 13.913 63.215 14.5263C63.575 15.1396 63.755 15.8396 63.755 16.6263C63.755 17.5863 63.475 18.433 62.915 19.1663C62.3683 19.8996 61.5417 20.3863 60.435 20.6263L63.935 26.4663H61.755ZM56.235 19.3063H58.915C59.9017 19.3063 60.6417 19.0663 61.135 18.5863C61.6283 18.093 61.875 17.4396 61.875 16.6263C61.875 15.7996 61.6283 15.1596 61.135 14.7063C60.655 14.253 59.915 14.0263 58.915 14.0263H56.235V19.3063ZM76.583 20.5663C76.583 20.913 76.563 21.2796 76.523 21.6663H67.763C67.8296 22.7463 68.1963 23.593 68.863 24.2063C69.543 24.8063 70.363 25.1063 71.323 25.1063C72.1096 25.1063 72.763 24.9263 73.283 24.5663C73.8163 24.193 74.1896 23.6996 74.403 23.0863H76.363C76.0696 24.1396 75.483 24.9996 74.603 25.6663C73.723 26.3196 72.6296 26.6463 71.323 26.6463C70.283 26.6463 69.3496 26.413 68.523 25.9463C67.7096 25.4796 67.0696 24.8196 66.603 23.9663C66.1363 23.0996 65.903 22.0996 65.903 20.9663C65.903 19.833 66.1296 18.8396 66.583 17.9863C67.0363 17.133 67.6696 16.4796 68.483 16.0263C69.3096 15.5596 70.2563 15.3263 71.323 15.3263C72.363 15.3263 73.283 15.553 74.083 16.0063C74.883 16.4596 75.4963 17.0863 75.923 17.8863C76.363 18.673 76.583 19.5663 76.583 20.5663ZM74.703 20.1863C74.703 19.493 74.5496 18.8996 74.243 18.4063C73.9363 17.8996 73.5163 17.5196 72.983 17.2663C72.463 16.9996 71.883 16.8663 71.243 16.8663C70.323 16.8663 69.5363 17.1596 68.883 17.7463C68.243 18.333 67.8763 19.1463 67.783 20.1863H74.703ZM78.3053 20.9463C78.3053 19.8263 78.532 18.8463 78.9853 18.0063C79.4386 17.153 80.0586 16.493 80.8453 16.0263C81.6453 15.5596 82.532 15.3263 83.5053 15.3263C84.4653 15.3263 85.2986 15.533 86.0053 15.9463C86.712 16.3596 87.2386 16.8796 87.5853 17.5063V15.5063H89.4253V26.4663H87.5853V24.4263C87.2253 25.0663 86.6853 25.5996 85.9653 26.0263C85.2586 26.4396 84.432 26.6463 83.4853 26.6463C82.512 26.6463 81.632 26.4063 80.8453 25.9263C80.0586 25.4463 79.4386 24.773 78.9853 23.9063C78.532 23.0396 78.3053 22.053 78.3053 20.9463ZM87.5853 20.9663C87.5853 20.1396 87.4186 19.4196 87.0853 18.8063C86.752 18.193 86.2986 17.7263 85.7253 17.4063C85.1653 17.073 84.5453 16.9063 83.8653 16.9063C83.1853 16.9063 82.5653 17.0663 82.0053 17.3863C81.4453 17.7063 80.9986 18.173 80.6653 18.7863C80.332 19.3996 80.1653 20.1196 80.1653 20.9463C80.1653 21.7863 80.332 22.5196 80.6653 23.1463C80.9986 23.7596 81.4453 24.233 82.0053 24.5663C82.5653 24.8863 83.1853 25.0463 83.8653 25.0463C84.5453 25.0463 85.1653 24.8863 85.7253 24.5663C86.2986 24.233 86.752 23.7596 87.0853 23.1463C87.4186 22.5196 87.5853 21.793 87.5853 20.9663ZM91.8209 20.9663C91.8209 19.833 92.0476 18.8463 92.5009 18.0063C92.9543 17.153 93.5809 16.493 94.3809 16.0263C95.1943 15.5596 96.1209 15.3263 97.1609 15.3263C98.5076 15.3263 99.6143 15.653 100.481 16.3063C101.361 16.9596 101.941 17.8663 102.221 19.0263H100.261C100.074 18.3596 99.7076 17.833 99.1609 17.4463C98.6276 17.0596 97.9609 16.8663 97.1609 16.8663C96.1209 16.8663 95.2809 17.2263 94.6409 17.9463C94.0009 18.653 93.6809 19.6596 93.6809 20.9663C93.6809 22.2863 94.0009 23.3063 94.6409 24.0263C95.2809 24.7463 96.1209 25.1063 97.1609 25.1063C97.9609 25.1063 98.6276 24.9196 99.1609 24.5463C99.6943 24.173 100.061 23.6396 100.261 22.9463H102.221C101.928 24.0663 101.341 24.9663 100.461 25.6463C99.5809 26.313 98.4809 26.6463 97.1609 26.6463C96.1209 26.6463 95.1943 26.413 94.3809 25.9463C93.5809 25.4796 92.9543 24.8196 92.5009 23.9663C92.0476 23.113 91.8209 22.113 91.8209 20.9663ZM106.869 17.0063V23.4663C106.869 23.9996 106.983 24.3796 107.209 24.6063C107.436 24.8196 107.829 24.9263 108.389 24.9263H109.729V26.4663H108.089C107.076 26.4663 106.316 26.233 105.809 25.7663C105.303 25.2996 105.049 24.533 105.049 23.4663V17.0063H103.629V15.5063H105.049V12.7463H106.869V15.5063H109.729V17.0063H106.869Z" fill="#7C7C7F"/>
<defs>
<linearGradient id="paint0_linear_3815_9058" x1="21.875" y1="15.5195" x2="21.875" y2="23.332" gradientUnits="userSpaceOnUse">
<stop stop-color="#77C04A"/>
<stop offset="1" stop-color="#77C04A" stop-opacity="0"/>
</linearGradient>
<linearGradient id="paint1_linear_3815_9058" x1="21.875" y1="10.5439" x2="21.875" y2="28.3948" gradientUnits="userSpaceOnUse">
<stop stop-color="#4AC064"/>
<stop offset="1" stop-color="#7C7C7F" stop-opacity="0.81"/>
</linearGradient>
<linearGradient id="paint2_linear_3815_9058" x1="21.8558" y1="0" x2="21.8558" y2="38.9096" gradientUnits="userSpaceOnUse">
<stop stop-color="#4AC064"/>
<stop offset="1" stop-color="#7C7C7F" stop-opacity="0.81"/>
</linearGradient>
<linearGradient id="paint3_linear_3815_9058" x1="21.905" y1="0.0541992" x2="21.905" y2="38.93" gradientUnits="userSpaceOnUse">
<stop stop-color="#4AC064"/>
<stop offset="1" stop-color="#7C7C7F" stop-opacity="0.81"/>
</linearGradient>
<linearGradient id="paint4_linear_3815_9058" x1="21.875" y1="15.5195" x2="21.875" y2="23.332" gradientUnits="userSpaceOnUse">
<stop stop-color="#77C04A"/>
<stop offset="1" stop-color="#77C04A" stop-opacity="0"/>
</linearGradient>
<linearGradient id="paint5_linear_3815_9058" x1="21.875" y1="10.5439" x2="21.875" y2="28.3948" gradientUnits="userSpaceOnUse">
<stop stop-color="#4AC064"/>
<stop offset="1" stop-color="#7C7C7F" stop-opacity="0.81"/>
</linearGradient>
<linearGradient id="paint6_linear_3815_9058" x1="21.8558" y1="0" x2="21.8558" y2="38.9096" gradientUnits="userSpaceOnUse">
<stop stop-color="#4AC064"/>
<stop offset="1" stop-color="#7C7C7F" stop-opacity="0.81"/>
</linearGradient>
<linearGradient id="paint7_linear_3815_9058" x1="21.905" y1="0.0541992" x2="21.905" y2="38.93" gradientUnits="userSpaceOnUse">
<stop stop-color="#4AC064"/>
<stop offset="1" stop-color="#7C7C7F" stop-opacity="0.81"/>
</linearGradient>
</defs>
</svg>
