<svg width="61" height="60" viewBox="0 0 61 60" fill="none" xmlns="http://www.w3.org/2000/svg">
<path d="M30.8398 34.6387C33.4287 34.6387 35.5273 32.54 35.5273 29.9512C35.5273 27.3623 33.4287 25.2637 30.8398 25.2637C28.251 25.2637 26.1523 27.3623 26.1523 29.9512C26.1523 32.54 28.251 34.6387 30.8398 34.6387Z" fill="url(#paint0_linear_3806_9127)"/>
<path d="M30.8398 40.6989C25.2057 40.8352 19.5857 40.0757 14.1898 38.4489C11.6973 37.6587 9.37247 36.414 7.33297 34.7776C6.55471 34.2186 5.9066 33.4978 5.43311 32.6648C4.95962 31.8317 4.67195 30.9061 4.58984 29.9514C4.58984 26.852 7.99484 23.8145 13.6986 21.827C19.2387 20.0659 25.0272 19.2124 30.8398 19.2995C36.5749 19.2194 42.2859 20.0575 47.7561 21.782C50.1566 22.5473 52.4026 23.7319 54.3898 25.2808C55.1548 25.8137 55.7932 26.5084 56.2598 27.3155C56.7264 28.1227 57.0098 29.0225 57.0898 29.9514C57.0898 33.1726 53.2836 36.437 47.1523 38.4658C41.861 40.0396 36.3595 40.7927 30.8398 40.6989V40.6989ZM30.8398 21.542C25.2788 21.4677 19.7414 22.2791 14.4355 23.9458C9.18547 25.7776 6.83234 28.2826 6.83234 29.9458C6.83234 31.6858 9.36172 34.4214 14.9155 36.3208C20.0775 37.8692 25.4522 38.59 30.8398 38.4564C36.1206 38.5508 41.3847 37.8363 46.4492 36.3376C52.2148 34.427 54.8398 31.6876 54.8398 29.9514C54.7452 29.3556 54.5281 28.7858 54.2022 28.2782C53.8762 27.7705 53.4485 27.336 52.9461 27.002C51.1681 25.6279 49.1618 24.5781 47.0192 23.9008C41.7861 22.2578 36.3242 21.4615 30.8398 21.542V21.542Z" fill="url(#paint1_linear_3806_9127)"/>
<path d="M20.1896 53.3304C19.3149 53.3505 18.4505 53.1383 17.6846 52.7154C14.9996 51.1666 14.0696 46.7004 15.1965 40.766C16.4389 35.0868 18.5917 29.6459 21.5715 24.6541C24.3666 19.6462 27.9449 15.1177 32.1709 11.2404C34.033 9.54296 36.1812 8.18891 38.5159 7.24102C39.3603 6.84528 40.2814 6.64014 41.214 6.64014C42.1465 6.64014 43.0677 6.84528 43.9121 7.24102C46.704 8.84977 47.6284 13.7773 46.3252 20.1016C45.0444 25.4727 42.9475 30.6156 40.1077 35.351C37.411 40.2998 33.9453 44.7889 29.8402 48.6504C27.9104 50.4144 25.6709 51.8059 23.2346 52.7548C22.2593 53.1168 21.2298 53.3114 20.1896 53.3304V53.3304ZM23.514 25.7679C20.6717 30.5479 18.6083 35.7498 17.4015 41.1785C16.3646 46.6441 17.3602 49.931 18.8077 50.7673C20.3077 51.6354 23.949 50.8123 28.3702 46.9498C32.289 43.2503 35.5969 38.9533 38.1709 34.2185C40.8914 29.6914 42.9028 24.7744 44.1352 19.6385C45.3615 13.6854 44.3021 10.0404 42.7984 9.17414C42.2348 8.95819 41.6325 8.86152 41.0296 8.89025C40.4267 8.91897 39.8364 9.07246 39.2959 9.34102C37.2178 10.1985 35.3072 11.4159 33.6521 12.9373C29.6146 16.6512 26.1965 20.9865 23.5271 25.7791L23.514 25.7679Z" fill="url(#paint2_linear_3806_9127)"/>
<path d="M41.4844 53.3552C38.9438 53.3552 35.7169 51.8177 32.3569 48.9283C28.057 45.0157 24.4181 40.4334 21.5813 35.359C18.6389 30.4359 16.5032 25.0737 15.2551 19.4758C14.7138 17.013 14.6135 14.4737 14.9588 11.9758C15.0386 11.0492 15.3208 10.1514 15.7854 9.3457C16.2499 8.53999 16.8856 7.84602 17.6475 7.3127C20.4357 5.69833 25.1663 7.3577 29.9944 11.644C34.008 15.4356 37.4164 19.8203 40.1007 24.6452C43.0412 29.4534 45.1994 34.6981 46.4944 40.1833C47.059 42.7365 47.1461 45.3722 46.7513 47.9571C46.6574 48.9103 46.3584 49.832 45.8749 50.6589C45.3914 51.4858 44.7348 52.1984 43.9501 52.7477C43.1966 53.1653 42.3456 53.375 41.4844 53.3552V53.3552ZM23.5219 34.2302C26.2434 39.0798 29.7193 43.4653 33.8194 47.2221C38.0363 50.8502 41.3813 51.6302 42.8194 50.7846C44.3194 49.9127 45.4257 46.354 44.2857 40.5958C43.0367 35.3588 40.9667 30.3525 38.1526 25.7627C35.591 21.1448 32.3377 16.9462 28.5057 13.3127C23.9607 9.2777 20.2744 8.37583 18.7726 9.24583C18.3044 9.62623 17.9203 10.0996 17.6444 10.6359C17.3684 11.1723 17.2067 11.7601 17.1694 12.3621C16.8713 14.5897 16.9684 16.8525 17.4563 19.0465C18.6569 24.3998 20.7052 29.527 23.5238 34.234L23.5219 34.2302Z" fill="url(#paint3_linear_3806_9127)"/>
<defs>
<linearGradient id="paint0_linear_3806_9127" x1="30.8398" y1="25.2637" x2="30.8398" y2="34.6387" gradientUnits="userSpaceOnUse">
<stop stop-color="#77C04A"/>
<stop offset="1" stop-color="#77C04A" stop-opacity="0"/>
</linearGradient>
<linearGradient id="paint1_linear_3806_9127" x1="30.8398" y1="19.2935" x2="30.8398" y2="40.7144" gradientUnits="userSpaceOnUse">
<stop stop-color="#4AC064"/>
<stop offset="1" stop-color="#7C7C7F" stop-opacity="0.81"/>
</linearGradient>
<linearGradient id="paint2_linear_3806_9127" x1="30.8167" y1="6.64014" x2="30.8167" y2="53.3317" gradientUnits="userSpaceOnUse">
<stop stop-color="#4AC064"/>
<stop offset="1" stop-color="#7C7C7F" stop-opacity="0.81"/>
</linearGradient>
<linearGradient id="paint3_linear_3806_9127" x1="30.876" y1="6.70557" x2="30.876" y2="53.3565" gradientUnits="userSpaceOnUse">
<stop stop-color="#4AC064"/>
<stop offset="1" stop-color="#7C7C7F" stop-opacity="0.81"/>
</linearGradient>
</defs>
</svg>
