<svg width="131" height="40" viewBox="0 0 131 40" fill="none" xmlns="http://www.w3.org/2000/svg">
<path d="M22 23.8657C24.1574 23.8657 25.9062 22.1168 25.9062 19.9595C25.9062 17.8021 24.1574 16.0532 22 16.0532C19.8426 16.0532 18.0938 17.8021 18.0938 19.9595C18.0938 22.1168 19.8426 23.8657 22 23.8657Z" fill="url(#paint0_linear_3815_9058)"/>
<path d="M22 28.9155C17.3049 29.0291 12.6216 28.3962 8.125 27.0405C6.04785 26.382 4.11052 25.3448 2.41094 23.9811C1.76239 23.5153 1.2223 22.9146 0.827722 22.2204C0.433145 21.5262 0.193421 20.7548 0.125 19.9592C0.125 17.3764 2.9625 14.8452 7.71562 13.1889C12.3324 11.7214 17.1561 11.0101 22 11.0827C26.7792 11.0159 31.5383 11.7143 36.0969 13.1514C38.0973 13.7892 39.969 14.7763 41.625 16.0671C42.2625 16.5112 42.7945 17.0901 43.1833 17.7627C43.5721 18.4353 43.8083 19.1852 43.875 19.9592C43.875 22.6436 40.7031 25.3639 35.5938 27.0546C31.1843 28.3661 26.5997 28.9937 22 28.9155V28.9155ZM22 12.9514C17.3658 12.8895 12.7513 13.5657 8.32969 14.9546C3.95469 16.4811 1.99375 18.5686 1.99375 19.9546C1.99375 21.4046 4.10156 23.6842 8.72969 25.2671C13.0314 26.5575 17.5103 27.1581 22 27.0467C26.4006 27.1254 30.7874 26.53 35.0078 25.2811C39.8125 23.6889 42 21.4061 42 19.9592C41.9212 19.4627 41.7402 18.9879 41.4686 18.5649C41.197 18.1419 40.8406 17.7797 40.4219 17.5014C38.9402 16.3563 37.2683 15.4815 35.4828 14.9171C31.1219 13.5479 26.5703 12.8844 22 12.9514V12.9514Z" fill="url(#paint1_linear_3815_9058)"/>
<path d="M13.1249 39.4422C12.396 39.459 11.6757 39.2821 11.0374 38.9297C8.79988 37.6391 8.02488 33.9172 8.96394 28.9719C9.99933 24.2393 11.7933 19.7052 14.2764 15.5454C16.6057 11.3721 19.5877 7.59835 23.1093 4.36724C24.6611 2.95271 26.4512 1.82434 28.3968 1.03442C29.1004 0.704642 29.8681 0.533691 30.6452 0.533691C31.4223 0.533691 32.1899 0.704642 32.8936 1.03442C35.2202 2.37505 35.9905 6.4813 34.9046 11.7516C33.8372 16.2275 32.0898 20.5132 29.7233 24.4594C27.476 28.5834 24.588 32.3243 21.1671 35.5422C19.5589 37.0122 17.6926 38.1718 15.6624 38.9626C14.8496 39.2642 13.9917 39.4264 13.1249 39.4422V39.4422ZM15.8952 16.4735C13.5266 20.4568 11.8072 24.7918 10.8014 29.3157C9.93738 33.8704 10.7671 36.6094 11.9733 37.3063C13.2233 38.0297 16.2577 37.3438 19.9421 34.1251C23.2077 31.0422 25.9643 27.4613 28.1093 23.5157C30.3763 19.743 32.0525 15.6456 33.0796 11.3657C34.1014 6.40474 33.2186 3.36724 31.9655 2.64536C31.4958 2.4654 30.9939 2.38485 30.4915 2.40878C29.9892 2.43272 29.4972 2.56063 29.0468 2.78442C27.315 3.49903 25.7229 4.51353 24.3436 5.7813C20.9791 8.87628 18.1306 12.489 15.9061 16.4829L15.8952 16.4735Z" fill="url(#paint2_linear_3815_9058)"/>
<path d="M30.8703 39.4626C28.7531 39.4626 26.0641 38.1813 23.2641 35.7735C19.6808 32.513 16.6484 28.6945 14.2844 24.4657C11.8324 20.3631 10.0526 15.8947 9.01251 11.2298C8.56143 9.17741 8.47784 7.06133 8.76563 4.97978C8.83217 4.2076 9.0673 3.45942 9.45444 2.788C9.84158 2.11658 10.3713 1.53826 11.0063 1.09384C13.3297 -0.251474 17.2719 1.13134 21.2953 4.70321C24.64 7.86288 27.4803 11.5168 29.7172 15.5376C32.1677 19.5444 33.9661 23.915 35.0453 28.486C35.5158 30.6137 35.5884 32.8101 35.2594 34.9642C35.1811 35.7585 34.932 36.5266 34.529 37.2157C34.1261 37.9048 33.5789 38.4986 32.925 38.9563C32.2972 39.3043 31.588 39.4791 30.8703 39.4626V39.4626ZM15.9016 23.5251C18.1694 27.5664 21.0661 31.221 24.4828 34.3517C27.9969 37.3751 30.7844 38.0251 31.9828 37.3204C33.2328 36.5938 34.1547 33.6282 33.2047 28.8298C32.1639 24.4656 30.4389 20.2937 28.0938 16.4688C25.9591 12.6206 23.248 9.12175 20.0547 6.09384C16.2672 2.73134 13.1953 1.97978 11.9438 2.70478C11.5537 3.02178 11.2336 3.41622 11.0036 3.86319C10.7737 4.31017 10.6389 4.79996 10.6078 5.30165C10.3594 7.15804 10.4403 9.04369 10.8469 10.872C11.8474 15.3331 13.5543 19.6057 15.9031 23.5282L15.9016 23.5251Z" fill="url(#paint3_linear_3815_9058)"/>
<path d="M22 23.8657C24.1574 23.8657 25.9062 22.1168 25.9062 19.9595C25.9062 17.8021 24.1574 16.0532 22 16.0532C19.8426 16.0532 18.0938 17.8021 18.0938 19.9595C18.0938 22.1168 19.8426 23.8657 22 23.8657Z" fill="url(#paint4_linear_3815_9058)"/>
<path d="M22 28.9155C17.3049 29.0291 12.6216 28.3962 8.125 27.0405C6.04785 26.382 4.11052 25.3448 2.41094 23.9811C1.76239 23.5153 1.2223 22.9146 0.827722 22.2204C0.433145 21.5262 0.193421 20.7548 0.125 19.9592C0.125 17.3764 2.9625 14.8452 7.71562 13.1889C12.3324 11.7214 17.1561 11.0101 22 11.0827C26.7792 11.0159 31.5383 11.7143 36.0969 13.1514C38.0973 13.7892 39.969 14.7763 41.625 16.0671C42.2625 16.5112 42.7945 17.0901 43.1833 17.7627C43.5721 18.4353 43.8083 19.1852 43.875 19.9592C43.875 22.6436 40.7031 25.3639 35.5938 27.0546C31.1843 28.3661 26.5997 28.9937 22 28.9155V28.9155ZM22 12.9514C17.3658 12.8895 12.7513 13.5657 8.32969 14.9546C3.95469 16.4811 1.99375 18.5686 1.99375 19.9546C1.99375 21.4046 4.10156 23.6842 8.72969 25.2671C13.0314 26.5575 17.5103 27.1581 22 27.0467C26.4006 27.1254 30.7874 26.53 35.0078 25.2811C39.8125 23.6889 42 21.4061 42 19.9592C41.9212 19.4627 41.7402 18.9879 41.4686 18.5649C41.197 18.1419 40.8406 17.7797 40.4219 17.5014C38.9402 16.3563 37.2683 15.4815 35.4828 14.9171C31.1219 13.5479 26.5703 12.8844 22 12.9514V12.9514Z" fill="url(#paint5_linear_3815_9058)"/>
<path d="M13.1249 39.4422C12.396 39.459 11.6757 39.2821 11.0374 38.9297C8.79988 37.6391 8.02488 33.9172 8.96394 28.9719C9.99933 24.2393 11.7933 19.7052 14.2764 15.5454C16.6057 11.3721 19.5877 7.59835 23.1093 4.36724C24.6611 2.95271 26.4512 1.82434 28.3968 1.03442C29.1004 0.704642 29.8681 0.533691 30.6452 0.533691C31.4223 0.533691 32.1899 0.704642 32.8936 1.03442C35.2202 2.37505 35.9905 6.4813 34.9046 11.7516C33.8372 16.2275 32.0898 20.5132 29.7233 24.4594C27.476 28.5834 24.588 32.3243 21.1671 35.5422C19.5589 37.0122 17.6926 38.1718 15.6624 38.9626C14.8496 39.2642 13.9917 39.4264 13.1249 39.4422V39.4422ZM15.8952 16.4735C13.5266 20.4568 11.8072 24.7918 10.8014 29.3157C9.93738 33.8704 10.7671 36.6094 11.9733 37.3063C13.2233 38.0297 16.2577 37.3438 19.9421 34.1251C23.2077 31.0422 25.9643 27.4613 28.1093 23.5157C30.3763 19.743 32.0525 15.6456 33.0796 11.3657C34.1014 6.40474 33.2186 3.36724 31.9655 2.64536C31.4958 2.4654 30.9939 2.38485 30.4915 2.40878C29.9892 2.43272 29.4972 2.56063 29.0468 2.78442C27.315 3.49903 25.7229 4.51353 24.3436 5.7813C20.9791 8.87628 18.1306 12.489 15.9061 16.4829L15.8952 16.4735Z" fill="url(#paint6_linear_3815_9058)"/>
<path d="M30.8703 39.4626C28.7531 39.4626 26.0641 38.1813 23.2641 35.7735C19.6808 32.513 16.6484 28.6945 14.2844 24.4657C11.8324 20.3631 10.0526 15.8947 9.01251 11.2298C8.56143 9.17741 8.47784 7.06133 8.76563 4.97978C8.83217 4.2076 9.0673 3.45942 9.45444 2.788C9.84158 2.11658 10.3713 1.53826 11.0063 1.09384C13.3297 -0.251474 17.2719 1.13134 21.2953 4.70321C24.64 7.86288 27.4803 11.5168 29.7172 15.5376C32.1677 19.5444 33.9661 23.915 35.0453 28.486C35.5158 30.6137 35.5884 32.8101 35.2594 34.9642C35.1811 35.7585 34.932 36.5266 34.529 37.2157C34.1261 37.9048 33.5789 38.4986 32.925 38.9563C32.2971 39.3043 31.588 39.4791 30.8703 39.4626V39.4626ZM15.9016 23.5251C18.1694 27.5664 21.0661 31.221 24.4828 34.3517C27.9969 37.3751 30.7844 38.0251 31.9828 37.3204C33.2328 36.5938 34.1547 33.6282 33.2047 28.8298C32.1639 24.4656 30.4389 20.2937 28.0938 16.4688C25.9591 12.6206 23.248 9.12175 20.0547 6.09384C16.2672 2.73134 13.1953 1.97978 11.9438 2.70478C11.5537 3.02178 11.2336 3.41622 11.0036 3.86319C10.7737 4.31017 10.6389 4.79996 10.6078 5.30165C10.3594 7.15804 10.4403 9.04369 10.8469 10.872C11.8474 15.3331 13.5543 19.6057 15.9031 23.5282L15.9016 23.5251Z" fill="url(#paint7_linear_3815_9058)"/>
<path d="M61.88 27L58.56 21.3H56.36V27H54.54V13.06H59.04C60.0933 13.06 60.98 13.24 61.7 13.6C62.4333 13.96 62.98 14.4467 63.34 15.06C63.7 15.6733 63.88 16.3733 63.88 17.16C63.88 18.12 63.6 18.9667 63.04 19.7C62.4933 20.4333 61.6667 20.92 60.56 21.16L64.06 27H61.88ZM56.36 19.84H59.04C60.0267 19.84 60.7667 19.6 61.26 19.12C61.7533 18.6267 62 17.9733 62 17.16C62 16.3333 61.7533 15.6933 61.26 15.24C60.78 14.7867 60.04 14.56 59.04 14.56H56.36V19.84ZM76.708 21.1C76.708 21.4467 76.688 21.8133 76.648 22.2H67.888C67.9546 23.28 68.3213 24.1267 68.988 24.74C69.668 25.34 70.488 25.64 71.448 25.64C72.2346 25.64 72.888 25.46 73.408 25.1C73.9413 24.7267 74.3146 24.2333 74.528 23.62H76.488C76.1946 24.6733 75.608 25.5333 74.728 26.2C73.848 26.8533 72.7546 27.18 71.448 27.18C70.408 27.18 69.4746 26.9467 68.648 26.48C67.8346 26.0133 67.1946 25.3533 66.728 24.5C66.2613 23.6333 66.028 22.6333 66.028 21.5C66.028 20.3667 66.2546 19.3733 66.708 18.52C67.1613 17.6667 67.7946 17.0133 68.608 16.56C69.4346 16.0933 70.3813 15.86 71.448 15.86C72.488 15.86 73.408 16.0867 74.208 16.54C75.008 16.9933 75.6213 17.62 76.048 18.42C76.488 19.2067 76.708 20.1 76.708 21.1ZM74.828 20.72C74.828 20.0267 74.6746 19.4333 74.368 18.94C74.0613 18.4333 73.6413 18.0533 73.108 17.8C72.588 17.5333 72.008 17.4 71.368 17.4C70.448 17.4 69.6613 17.6933 69.008 18.28C68.368 18.8667 68.0013 19.68 67.908 20.72H74.828ZM78.4303 21.48C78.4303 20.36 78.657 19.38 79.1103 18.54C79.5636 17.6867 80.1836 17.0267 80.9703 16.56C81.7703 16.0933 82.657 15.86 83.6303 15.86C84.5903 15.86 85.4236 16.0667 86.1303 16.48C86.837 16.8933 87.3636 17.4133 87.7103 18.04V16.04H89.5503V27H87.7103V24.96C87.3503 25.6 86.8103 26.1333 86.0903 26.56C85.3836 26.9733 84.557 27.18 83.6103 27.18C82.637 27.18 81.757 26.94 80.9703 26.46C80.1836 25.98 79.5636 25.3067 79.1103 24.44C78.657 23.5733 78.4303 22.5867 78.4303 21.48ZM87.7103 21.5C87.7103 20.6733 87.5436 19.9533 87.2103 19.34C86.877 18.7267 86.4236 18.26 85.8503 17.94C85.2903 17.6067 84.6703 17.44 83.9903 17.44C83.3103 17.44 82.6903 17.6 82.1303 17.92C81.5703 18.24 81.1236 18.7067 80.7903 19.32C80.457 19.9333 80.2903 20.6533 80.2903 21.48C80.2903 22.32 80.457 23.0533 80.7903 23.68C81.1236 24.2933 81.5703 24.7667 82.1303 25.1C82.6903 25.42 83.3103 25.58 83.9903 25.58C84.6703 25.58 85.2903 25.42 85.8503 25.1C86.4236 24.7667 86.877 24.2933 87.2103 23.68C87.5436 23.0533 87.7103 22.3267 87.7103 21.5ZM91.9459 21.5C91.9459 20.3667 92.1726 19.38 92.6259 18.54C93.0793 17.6867 93.7059 17.0267 94.5059 16.56C95.3193 16.0933 96.2459 15.86 97.2859 15.86C98.6326 15.86 99.7393 16.1867 100.606 16.84C101.486 17.4933 102.066 18.4 102.346 19.56H100.386C100.199 18.8933 99.8326 18.3667 99.2859 17.98C98.7526 17.5933 98.0859 17.4 97.2859 17.4C96.2459 17.4 95.4059 17.76 94.7659 18.48C94.1259 19.1867 93.8059 20.1933 93.8059 21.5C93.8059 22.82 94.1259 23.84 94.7659 24.56C95.4059 25.28 96.2459 25.64 97.2859 25.64C98.0859 25.64 98.7526 25.4533 99.2859 25.08C99.8193 24.7067 100.186 24.1733 100.386 23.48H102.346C102.053 24.6 101.466 25.5 100.586 26.18C99.7059 26.8467 98.6059 27.18 97.2859 27.18C96.2459 27.18 95.3193 26.9467 94.5059 26.48C93.7059 26.0133 93.0793 25.3533 92.6259 24.5C92.1726 23.6467 91.9459 22.6467 91.9459 21.5ZM106.994 17.54V24C106.994 24.5333 107.108 24.9133 107.334 25.14C107.561 25.3533 107.954 25.46 108.514 25.46H109.854V27H108.214C107.201 27 106.441 26.7667 105.934 26.3C105.428 25.8333 105.174 25.0667 105.174 24V17.54H103.754V16.04H105.174V13.28H106.994V16.04H109.854V17.54H106.994ZM112.64 27.12C112.293 27.12 112 27 111.76 26.76C111.52 26.52 111.4 26.2267 111.4 25.88C111.4 25.5333 111.52 25.24 111.76 25C112 24.76 112.293 24.64 112.64 24.64C112.973 24.64 113.253 24.76 113.48 25C113.72 25.24 113.84 25.5333 113.84 25.88C113.84 26.2267 113.72 26.52 113.48 26.76C113.253 27 112.973 27.12 112.64 27.12ZM117.239 14.26C116.892 14.26 116.599 14.14 116.359 13.9C116.132 13.66 116.019 13.3667 116.019 13.02C116.019 12.6733 116.132 12.38 116.359 12.14C116.599 11.9 116.892 11.78 117.239 11.78C117.585 11.78 117.872 11.9 118.099 12.14C118.339 12.38 118.459 12.6733 118.459 13.02C118.459 13.3667 118.339 13.66 118.099 13.9C117.872 14.14 117.585 14.26 117.239 14.26ZM118.139 29.38C118.139 30.3533 117.892 31.0667 117.399 31.52C116.905 31.9733 116.185 32.2 115.239 32.2H114.179V30.66H114.939C115.445 30.66 115.799 30.56 115.999 30.36C116.212 30.16 116.319 29.82 116.319 29.34V16.04H118.139V29.38ZM125.1 27.18C124.26 27.18 123.506 27.04 122.84 26.76C122.173 26.4667 121.646 26.0667 121.26 25.56C120.873 25.04 120.66 24.4467 120.62 23.78H122.5C122.553 24.3267 122.806 24.7733 123.26 25.12C123.726 25.4667 124.333 25.64 125.08 25.64C125.773 25.64 126.32 25.4867 126.72 25.18C127.12 24.8733 127.32 24.4867 127.32 24.02C127.32 23.54 127.106 23.1867 126.68 22.96C126.253 22.72 125.593 22.4867 124.7 22.26C123.886 22.0467 123.22 21.8333 122.7 21.62C122.193 21.3933 121.753 21.0667 121.38 20.64C121.02 20.2 120.84 19.6267 120.84 18.92C120.84 18.36 121.006 17.8467 121.34 17.38C121.673 16.9133 122.146 16.5467 122.76 16.28C123.373 16 124.073 15.86 124.86 15.86C126.073 15.86 127.053 16.1667 127.8 16.78C128.546 17.3933 128.946 18.2333 129 19.3H127.18C127.14 18.7267 126.906 18.2667 126.48 17.92C126.066 17.5733 125.506 17.4 124.8 17.4C124.146 17.4 123.626 17.54 123.24 17.82C122.853 18.1 122.66 18.4667 122.66 18.92C122.66 19.28 122.773 19.58 123 19.82C123.24 20.0467 123.533 20.2333 123.88 20.38C124.24 20.5133 124.733 20.6667 125.36 20.84C126.146 21.0533 126.786 21.2667 127.28 21.48C127.773 21.68 128.193 21.9867 128.54 22.4C128.9 22.8133 129.086 23.3533 129.1 24.02C129.1 24.62 128.933 25.16 128.6 25.64C128.266 26.12 127.793 26.5 127.18 26.78C126.58 27.0467 125.886 27.18 125.1 27.18Z" fill="#7C7C7F"/>
<defs>
<linearGradient id="paint0_linear_3815_9058" x1="22" y1="16.0532" x2="22" y2="23.8657" gradientUnits="userSpaceOnUse">
<stop stop-color="#77C04A"/>
<stop offset="1" stop-color="#77C04A" stop-opacity="0"/>
</linearGradient>
<linearGradient id="paint1_linear_3815_9058" x1="22" y1="11.0776" x2="22" y2="28.9285" gradientUnits="userSpaceOnUse">
<stop stop-color="#4AC064"/>
<stop offset="1" stop-color="#7C7C7F" stop-opacity="0.81"/>
</linearGradient>
<linearGradient id="paint2_linear_3815_9058" x1="21.9808" y1="0.533691" x2="21.9808" y2="39.4433" gradientUnits="userSpaceOnUse">
<stop stop-color="#4AC064"/>
<stop offset="1" stop-color="#7C7C7F" stop-opacity="0.81"/>
</linearGradient>
<linearGradient id="paint3_linear_3815_9058" x1="22.03" y1="0.587891" x2="22.03" y2="39.4637" gradientUnits="userSpaceOnUse">
<stop stop-color="#4AC064"/>
<stop offset="1" stop-color="#7C7C7F" stop-opacity="0.81"/>
</linearGradient>
<linearGradient id="paint4_linear_3815_9058" x1="22" y1="16.0532" x2="22" y2="23.8657" gradientUnits="userSpaceOnUse">
<stop stop-color="#77C04A"/>
<stop offset="1" stop-color="#77C04A" stop-opacity="0"/>
</linearGradient>
<linearGradient id="paint5_linear_3815_9058" x1="22" y1="11.0776" x2="22" y2="28.9285" gradientUnits="userSpaceOnUse">
<stop stop-color="#4AC064"/>
<stop offset="1" stop-color="#7C7C7F" stop-opacity="0.81"/>
</linearGradient>
<linearGradient id="paint6_linear_3815_9058" x1="21.9808" y1="0.533691" x2="21.9808" y2="39.4433" gradientUnits="userSpaceOnUse">
<stop stop-color="#4AC064"/>
<stop offset="1" stop-color="#7C7C7F" stop-opacity="0.81"/>
</linearGradient>
<linearGradient id="paint7_linear_3815_9058" x1="22.03" y1="0.587891" x2="22.03" y2="39.4637" gradientUnits="userSpaceOnUse">
<stop stop-color="#4AC064"/>
<stop offset="1" stop-color="#7C7C7F" stop-opacity="0.81"/>
</linearGradient>
</defs>
</svg>
